<?xml version="1.0" encoding="utf-8" ?>
<!DOCTYPE svg PUBLIC "-//W3C//DTD SVG 1.1//EN" "http://www.w3.org/Graphics/SVG/1.1/DTD/svg11.dtd">
<svg height="836" version="1.1" width="1580" xmlns="http://www.w3.org/2000/svg">
<rect fill="#ffffff" height="376" stroke="#ffffff" stroke-width="1" width="1328" x="238" y="78"/>
<rect fill="none" height="376" stroke="#000000" stroke-width="1" width="1328" x="238" y="78"/>
<rect fill="#ccffcc" height="256" stroke="#ccffcc" stroke-width="1" width="1040" x="278" y="118"/>
<rect fill="none" height="256" stroke="#000000" stroke-width="1" width="1040" x="278" y="118"/>
<rect fill="#ffffff" height="168" stroke="#ffffff" stroke-width="1" width="194" x="320" y="182"/>
<rect fill="none" height="168" stroke="#00ff" stroke-width="1" width="194" x="320" y="182"/>
<rect fill="#ffffff" height="168" stroke="#ffffff" stroke-width="1" width="194" x="320" y="182"/>
<rect fill="none" height="168" stroke="#000000" stroke-width="1" width="194" x="320" y="182"/>
<rect fill="#ffffff" height="0" stroke="#ffffff" stroke-width="1" width="182" x="331" y="183"/>
<text font-family="Dialog" font-size="12" x="335" y="196">
MFT - Managed File Transfer</text>
<rect fill="#ffffff" height="10" stroke="#ffffff" stroke-width="1" width="20" x="310" y="233"/>
<rect fill="none" height="10" stroke="#000000" stroke-width="1" width="20" x="310" y="233"/>
<rect fill="#ffffff" height="10" stroke="#ffffff" stroke-width="1" width="20" x="310" y="289"/>
<rect fill="none" height="10" stroke="#000000" stroke-width="1" width="20" x="310" y="289"/>
<text font-family="Dialog" font-size="12" x="246" y="90">
Ambiente MAPFRE</text>
<rect fill="#ffffff" height="320" stroke="#ffffff" stroke-width="1" width="192" x="14" y="110"/>
<rect fill="none" height="320" stroke="#000000" stroke-width="1" width="192" x="14" y="110"/>
<rect fill="none" height="16" stroke="#ffffff" stroke-width="1" width="177" x="22" y="118"/>
<text font-family="Dialog" font-size="12" x="23" y="131">
Ambiente Clientes/Parceiros</text>
<rect fill="#ffffff" height="80" stroke="#ffffff" stroke-width="1" width="120" x="40" y="166"/>
<rect fill="none" height="80" stroke="#00ff" stroke-width="1" width="120" x="40" y="166"/>
<rect fill="#ffffff" height="80" stroke="#ffffff" stroke-width="1" width="120" x="40" y="166"/>
<rect fill="none" height="80" stroke="#000000" stroke-width="1" width="120" x="40" y="166"/>
<rect fill="#ffffff" height="0" stroke="#ffffff" stroke-width="1" width="108" x="51" y="167"/>
<text font-family="Dialog" font-size="12" x="56" y="180">
Sistema Cliente</text>
<rect fill="#ffffff" height="10" stroke="#ffffff" stroke-width="1" width="20" x="30" y="187"/>
<rect fill="none" height="10" stroke="#000000" stroke-width="1" width="20" x="30" y="187"/>
<rect fill="#ffffff" height="10" stroke="#ffffff" stroke-width="1" width="20" x="30" y="214"/>
<rect fill="none" height="10" stroke="#000000" stroke-width="1" width="20" x="30" y="214"/>
<text font-family="Dialog" font-size="12" x="42" y="354">
Operador Cliente</text>
<ellipse cx="95" cy="303" fill="#000000" rx="8.0" ry="7.5" stroke="#000000" stroke-width="1"/>
<ellipse cx="95" cy="303" fill="#ffffff" rx="7.0" ry="6.5" stroke="#ffffff" stroke-width="1"/>
<line fill="#000000" stroke="#000000" stroke-width="1" x1="95" x2="95" y1="311" y2="326"/>
<line fill="#000000" stroke="#000000" stroke-width="1" x1="85" x2="105" y1="316" y2="316"/>
<line fill="#000000" stroke="#000000" stroke-width="1" x1="95" x2="90" y1="326" y2="341"/>
<line fill="#000000" stroke="#000000" stroke-width="1" x1="95" x2="100" y1="326" y2="341"/>
<line fill="#333399" stroke="#333399" stroke-width="1" x1="159" x2="164" y1="190" y2="190"/>
<line fill="#333399" stroke="#333399" stroke-width="1" x1="169" x2="174" y1="190" y2="190"/>
<line fill="#333399" stroke="#333399" stroke-width="1" x1="179" x2="184" y1="190" y2="190"/>
<line fill="#333399" stroke="#333399" stroke-width="1" x1="189" x2="194" y1="190" y2="190"/>
<line fill="#333399" stroke="#333399" stroke-width="1" x1="199" x2="204" y1="190" y2="190"/>
<line fill="#333399" stroke="#333399" stroke-width="1" x1="209" x2="214" y1="190" y2="190"/>
<line fill="#333399" stroke="#333399" stroke-width="1" x1="219" x2="224" y1="190" y2="190"/>
<line fill="#333399" stroke="#333399" stroke-width="1" x1="229" x2="234" y1="190" y2="190"/>
<line fill="#333399" stroke="#333399" stroke-width="1" x1="239" x2="244" y1="190" y2="190"/>
<line fill="#333399" stroke="#333399" stroke-width="1" x1="249" x2="254" y1="190" y2="190"/>
<line fill="#333399" stroke="#333399" stroke-width="1" x1="259" x2="264" y1="190" y2="190"/>
<line fill="#333399" stroke="#333399" stroke-width="1" x1="269" x2="274" y1="190" y2="190"/>
<line fill="#333399" stroke="#333399" stroke-width="1" x1="279" x2="284" y1="190" y2="190"/>
<line fill="#333399" stroke="#333399" stroke-width="1" x1="289" x2="294" y1="190" y2="190"/>
<line fill="#333399" stroke="#333399" stroke-width="1" x1="299" x2="304" y1="190" y2="190"/>
<line fill="#333399" stroke="#333399" stroke-width="1" x1="309" x2="314" y1="190" y2="190"/>
<line fill="#333399" stroke="#333399" stroke-width="1" x1="319" x2="320" y1="190" y2="190"/>
<line fill="#333399" stroke="#333399" stroke-width="1" x1="308" x2="320" y1="197" y2="190"/>
<line fill="#333399" stroke="#333399" stroke-width="1" x1="308" x2="320" y1="183" y2="190"/>
<text font-family="Dialog" font-size="12" x="197" y="184">
Envia Arquivos</text>
<line fill="#333399" stroke="#333399" stroke-width="1" x1="320" x2="315" y1="222" y2="222"/>
<line fill="#333399" stroke="#333399" stroke-width="1" x1="310" x2="305" y1="222" y2="222"/>
<line fill="#333399" stroke="#333399" stroke-width="1" x1="300" x2="295" y1="222" y2="222"/>
<line fill="#333399" stroke="#333399" stroke-width="1" x1="290" x2="285" y1="222" y2="222"/>
<line fill="#333399" stroke="#333399" stroke-width="1" x1="280" x2="275" y1="222" y2="222"/>
<line fill="#333399" stroke="#333399" stroke-width="1" x1="270" x2="265" y1="222" y2="222"/>
<line fill="#333399" stroke="#333399" stroke-width="1" x1="260" x2="255" y1="222" y2="222"/>
<line fill="#333399" stroke="#333399" stroke-width="1" x1="250" x2="245" y1="222" y2="222"/>
<line fill="#333399" stroke="#333399" stroke-width="1" x1="240" x2="235" y1="222" y2="222"/>
<line fill="#333399" stroke="#333399" stroke-width="1" x1="230" x2="225" y1="222" y2="222"/>
<line fill="#333399" stroke="#333399" stroke-width="1" x1="220" x2="215" y1="222" y2="222"/>
<line fill="#333399" stroke="#333399" stroke-width="1" x1="210" x2="205" y1="222" y2="222"/>
<line fill="#333399" stroke="#333399" stroke-width="1" x1="200" x2="195" y1="222" y2="222"/>
<line fill="#333399" stroke="#333399" stroke-width="1" x1="190" x2="185" y1="222" y2="222"/>
<line fill="#333399" stroke="#333399" stroke-width="1" x1="180" x2="175" y1="222" y2="222"/>
<line fill="#333399" stroke="#333399" stroke-width="1" x1="170" x2="165" y1="222" y2="222"/>
<line fill="#333399" stroke="#333399" stroke-width="1" x1="160" x2="159" y1="222" y2="222"/>
<line fill="#333399" stroke="#333399" stroke-width="1" x1="171" x2="159" y1="215" y2="222"/>
<line fill="#333399" stroke="#333399" stroke-width="1" x1="171" x2="159" y1="229" y2="222"/>
<text font-family="Dialog" font-size="12" x="197" y="215">
Envia Críticas</text>
<line fill="#000000" stroke="#000000" stroke-width="1" x1="105" x2="110" y1="316" y2="316"/>
<line fill="#000000" stroke="#000000" stroke-width="1" x1="115" x2="120" y1="316" y2="316"/>
<line fill="#000000" stroke="#000000" stroke-width="1" x1="125" x2="130" y1="316" y2="316"/>
<line fill="#000000" stroke="#000000" stroke-width="1" x1="135" x2="140" y1="316" y2="316"/>
<line fill="#000000" stroke="#000000" stroke-width="1" x1="145" x2="150" y1="316" y2="316"/>
<line fill="#000000" stroke="#000000" stroke-width="1" x1="155" x2="160" y1="316" y2="316"/>
<line fill="#000000" stroke="#000000" stroke-width="1" x1="165" x2="170" y1="316" y2="316"/>
<line fill="#000000" stroke="#000000" stroke-width="1" x1="175" x2="180" y1="316" y2="316"/>
<line fill="#000000" stroke="#000000" stroke-width="1" x1="185" x2="190" y1="316" y2="316"/>
<line fill="#000000" stroke="#000000" stroke-width="1" x1="195" x2="200" y1="316" y2="316"/>
<line fill="#000000" stroke="#000000" stroke-width="1" x1="205" x2="210" y1="316" y2="316"/>
<line fill="#000000" stroke="#000000" stroke-width="1" x1="215" x2="220" y1="316" y2="316"/>
<line fill="#000000" stroke="#000000" stroke-width="1" x1="225" x2="230" y1="316" y2="316"/>
<line fill="#000000" stroke="#000000" stroke-width="1" x1="235" x2="240" y1="316" y2="316"/>
<line fill="#000000" stroke="#000000" stroke-width="1" x1="245" x2="250" y1="316" y2="316"/>
<line fill="#000000" stroke="#000000" stroke-width="1" x1="255" x2="260" y1="316" y2="316"/>
<line fill="#000000" stroke="#000000" stroke-width="1" x1="265" x2="270" y1="316" y2="316"/>
<line fill="#000000" stroke="#000000" stroke-width="1" x1="275" x2="280" y1="316" y2="316"/>
<line fill="#000000" stroke="#000000" stroke-width="1" x1="285" x2="290" y1="316" y2="316"/>
<line fill="#000000" stroke="#000000" stroke-width="1" x1="295" x2="300" y1="316" y2="316"/>
<line fill="#000000" stroke="#000000" stroke-width="1" x1="305" x2="310" y1="316" y2="316"/>
<line fill="#000000" stroke="#000000" stroke-width="1" x1="315" x2="320" y1="316" y2="316"/>
<line fill="#000000" stroke="#000000" stroke-width="1" x1="308" x2="320" y1="323" y2="316"/>
<line fill="#000000" stroke="#000000" stroke-width="1" x1="308" x2="320" y1="309" y2="316"/>
<text font-family="Dialog" font-size="12" x="168" y="306">
Envia Arquivos</text>
<line fill="#333399" stroke="#333399" stroke-width="1" x1="342" x2="342" y1="349" y2="354"/>
<line fill="#333399" stroke="#333399" stroke-width="1" x1="342" x2="337" y1="358" y2="358"/>
<line fill="#333399" stroke="#333399" stroke-width="1" x1="332" x2="327" y1="358" y2="358"/>
<line fill="#333399" stroke="#333399" stroke-width="1" x1="322" x2="317" y1="358" y2="358"/>
<line fill="#333399" stroke="#333399" stroke-width="1" x1="312" x2="307" y1="358" y2="358"/>
<line fill="#333399" stroke="#333399" stroke-width="1" x1="302" x2="297" y1="358" y2="358"/>
<line fill="#333399" stroke="#333399" stroke-width="1" x1="292" x2="287" y1="358" y2="358"/>
<line fill="#333399" stroke="#333399" stroke-width="1" x1="282" x2="277" y1="358" y2="358"/>
<line fill="#333399" stroke="#333399" stroke-width="1" x1="272" x2="267" y1="358" y2="358"/>
<line fill="#333399" stroke="#333399" stroke-width="1" x1="262" x2="257" y1="358" y2="358"/>
<line fill="#333399" stroke="#333399" stroke-width="1" x1="252" x2="247" y1="358" y2="358"/>
<line fill="#333399" stroke="#333399" stroke-width="1" x1="242" x2="237" y1="358" y2="358"/>
<line fill="#333399" stroke="#333399" stroke-width="1" x1="232" x2="227" y1="358" y2="358"/>
<line fill="#333399" stroke="#333399" stroke-width="1" x1="222" x2="217" y1="358" y2="358"/>
<line fill="#333399" stroke="#333399" stroke-width="1" x1="212" x2="207" y1="358" y2="358"/>
<line fill="#333399" stroke="#333399" stroke-width="1" x1="202" x2="197" y1="358" y2="358"/>
<line fill="#333399" stroke="#333399" stroke-width="1" x1="192" x2="187" y1="358" y2="358"/>
<line fill="#333399" stroke="#333399" stroke-width="1" x1="182" x2="177" y1="358" y2="358"/>
<line fill="#333399" stroke="#333399" stroke-width="1" x1="172" x2="167" y1="358" y2="358"/>
<line fill="#333399" stroke="#333399" stroke-width="1" x1="162" x2="157" y1="358" y2="358"/>
<line fill="#333399" stroke="#333399" stroke-width="1" x1="152" x2="147" y1="358" y2="358"/>
<line fill="#333399" stroke="#333399" stroke-width="1" x1="142" x2="137" y1="358" y2="358"/>
<line fill="#333399" stroke="#333399" stroke-width="1" x1="132" x2="127" y1="358" y2="358"/>
<line fill="#333399" stroke="#333399" stroke-width="1" x1="122" x2="117" y1="358" y2="358"/>
<line fill="#333399" stroke="#333399" stroke-width="1" x1="112" x2="110" y1="358" y2="358"/>
<line fill="#333399" stroke="#333399" stroke-width="1" x1="110" x2="106" y1="358" y2="360"/>
<line fill="#333399" stroke="#333399" stroke-width="1" x1="101" x2="100" y1="363" y2="364"/>
<line fill="#333399" stroke="#333399" stroke-width="1" x1="106" x2="100" y1="351" y2="364"/>
<line fill="#333399" stroke="#333399" stroke-width="1" x1="113" x2="100" y1="363" y2="364"/>
<text font-family="Dialog" font-size="12" x="187" y="352">
Envia Críticas</text>
<rect fill="#ffffcc" height="274" stroke="#ffffcc" stroke-width="1" width="240" x="302" y="470"/>
<rect fill="none" height="273" stroke="#000000" stroke-width="1" width="239" x="302" y="470"/>
<text font-family="Dialog" font-size="12" x="304" y="484">
MFT - MACRO REQUISITOS</text>
<text font-family="Dialog" font-size="12" x="304" y="514">
- Gerenciamento de Contas</text>
<text font-family="Dialog" font-size="12" x="304" y="529">
- Monitorar envios</text>
<text font-family="Dialog" font-size="12" x="304" y="544">
- Auditoria</text>
<text font-family="Dialog" font-size="12" x="304" y="559">
- Garantia de entrega</text>
<text font-family="Dialog" font-size="12" x="304" y="574">
- Não repúdio</text>
<text font-family="Dialog" font-size="12" x="304" y="589">
- Assinatura digital</text>
<text font-family="Dialog" font-size="12" x="304" y="604">
- Criptografia</text>
<text font-family="Dialog" font-size="12" x="304" y="619">
- Compactação</text>
<text font-family="Dialog" font-size="12" x="304" y="634">
- Protocolos: </text>
<text font-family="Dialog" font-size="12" x="304" y="649">
   FTP, SFTP, WebDAV, HTTP/S</text>
<text font-family="Dialog" font-size="12" x="304" y="664">
   Connect Direct, XFB.</text>
<text font-family="Dialog" font-size="12" x="304" y="679">
- Email, Dropbox, GoogleDrive etc.</text>
<text font-family="Dialog" font-size="12" x="304" y="694">
- Caixas de email seguras por </text>
<text font-family="Dialog" font-size="12" x="304" y="709">
cliente/processo.</text>
<text font-family="Dialog" font-size="12" x="304" y="724">
- Devolve críticas por email, </text>
<text font-family="Dialog" font-size="12" x="304" y="739">
arquivos, webservices etc.</text>
<rect fill="#00ff" height="40" stroke="#00ff" stroke-width="1" width="182" x="608" y="214"/>
<rect fill="#ffffff" height="40" stroke="#ffffff" stroke-width="1" width="182" x="608" y="214"/>
<rect fill="none" height="40" stroke="#000000" stroke-width="1" width="182" x="608" y="214"/>
<text font-family="Dialog" font-size="12" x="627" y="228">
Layout Variável Executor</text>
<rect fill="#ffffff" height="10" stroke="#ffffff" stroke-width="1" width="20" x="598" y="222"/>
<rect fill="none" height="10" stroke="#000000" stroke-width="1" width="20" x="598" y="222"/>
<rect fill="#ffffff" height="10" stroke="#ffffff" stroke-width="1" width="20" x="598" y="235"/>
<rect fill="none" height="10" stroke="#000000" stroke-width="1" width="20" x="598" y="235"/>
<line fill="#333399" stroke="#333399" stroke-width="1" x1="513" x2="518" y1="222" y2="222"/>
<line fill="#333399" stroke="#333399" stroke-width="1" x1="523" x2="528" y1="222" y2="222"/>
<line fill="#333399" stroke="#333399" stroke-width="1" x1="533" x2="538" y1="222" y2="222"/>
<line fill="#333399" stroke="#333399" stroke-width="1" x1="543" x2="548" y1="222" y2="222"/>
<line fill="#333399" stroke="#333399" stroke-width="1" x1="553" x2="558" y1="222" y2="222"/>
<line fill="#333399" stroke="#333399" stroke-width="1" x1="563" x2="568" y1="222" y2="222"/>
<line fill="#333399" stroke="#333399" stroke-width="1" x1="573" x2="578" y1="222" y2="222"/>
<line fill="#333399" stroke="#333399" stroke-width="1" x1="583" x2="588" y1="222" y2="222"/>
<line fill="#333399" stroke="#333399" stroke-width="1" x1="593" x2="598" y1="222" y2="222"/>
<line fill="#333399" stroke="#333399" stroke-width="1" x1="603" x2="608" y1="222" y2="222"/>
<line fill="#333399" stroke="#333399" stroke-width="1" x1="596" x2="608" y1="229" y2="222"/>
<line fill="#333399" stroke="#333399" stroke-width="1" x1="596" x2="608" y1="215" y2="222"/>
<text font-family="Dialog" font-size="12" x="519" y="207">
Processar Arquivos</text>
<rect fill="#ffffc8" height="280" stroke="#ffffc8" stroke-width="1" width="240" x="582" y="470"/>
<rect fill="none" height="279" stroke="#000000" stroke-width="1" width="239" x="582" y="470"/>
<text font-family="Dialog" font-size="12" x="584" y="484">
Layout Variável - MACRO REQUISITOS</text>
<text font-family="Dialog" font-size="12" x="584" y="514">
Web:</text>
<text font-family="Dialog" font-size="12" x="584" y="529">
- Formatos: TXT fixo/delimitado, </text>
<text font-family="Dialog" font-size="12" x="584" y="544">
XLS, XLSX,XML.</text>
<text font-family="Dialog" font-size="12" x="584" y="559">
- Layout Variável.</text>
<text font-family="Dialog" font-size="12" x="584" y="574">
- Validação prévia dos campos</text>
<text font-family="Dialog" font-size="12" x="584" y="589">
- Assíncrono.</text>
<text font-family="Dialog" font-size="12" x="584" y="604">
- Configuração de políticas </text>
<text font-family="Dialog" font-size="12" x="584" y="619">
por processo: rejeição formato, </text>
<text font-family="Dialog" font-size="12" x="584" y="634">
rejeição erro, SLAs</text>
<text font-family="Dialog" font-size="12" x="584" y="649">
- Acompanhamento execução.</text>
<text font-family="Dialog" font-size="12" x="584" y="664">
- Dependências entre processos.</text>
<text font-family="Dialog" font-size="12" x="584" y="679">
- Distribuído (Grid, filas, multithread)</text>
<text font-family="Dialog" font-size="12" x="584" y="694">
- Geração de arquivo de retorno.</text>
<line fill="#333399" stroke="#333399" stroke-width="1" x1="608" x2="603" y1="245" y2="245"/>
<line fill="#333399" stroke="#333399" stroke-width="1" x1="598" x2="593" y1="245" y2="245"/>
<line fill="#333399" stroke="#333399" stroke-width="1" x1="588" x2="583" y1="245" y2="245"/>
<line fill="#333399" stroke="#333399" stroke-width="1" x1="578" x2="573" y1="245" y2="245"/>
<line fill="#333399" stroke="#333399" stroke-width="1" x1="568" x2="563" y1="245" y2="245"/>
<line fill="#333399" stroke="#333399" stroke-width="1" x1="558" x2="553" y1="245" y2="245"/>
<line fill="#333399" stroke="#333399" stroke-width="1" x1="548" x2="543" y1="245" y2="245"/>
<line fill="#333399" stroke="#333399" stroke-width="1" x1="538" x2="533" y1="245" y2="245"/>
<line fill="#333399" stroke="#333399" stroke-width="1" x1="528" x2="523" y1="245" y2="245"/>
<line fill="#333399" stroke="#333399" stroke-width="1" x1="518" x2="513" y1="245" y2="245"/>
<line fill="#333399" stroke="#333399" stroke-width="1" x1="525" x2="513" y1="238" y2="245"/>
<line fill="#333399" stroke="#333399" stroke-width="1" x1="525" x2="513" y1="252" y2="245"/>
<text font-family="Dialog" font-size="12" x="524" y="267">
Enviar Críticas</text>
<text font-family="Dialog" font-size="12" x="602" y="442">
Operador MAPFRE</text>
<ellipse cx="658" cy="391" fill="#000000" rx="8.0" ry="7.5" stroke="#000000" stroke-width="1"/>
<ellipse cx="658" cy="391" fill="#ffffff" rx="7.0" ry="6.5" stroke="#ffffff" stroke-width="1"/>
<line fill="#000000" stroke="#000000" stroke-width="1" x1="658" x2="658" y1="399" y2="414"/>
<line fill="#000000" stroke="#000000" stroke-width="1" x1="648" x2="668" y1="404" y2="404"/>
<line fill="#000000" stroke="#000000" stroke-width="1" x1="658" x2="653" y1="414" y2="429"/>
<line fill="#000000" stroke="#000000" stroke-width="1" x1="658" x2="663" y1="414" y2="429"/>
<rect fill="#00ff" height="40" stroke="#00ff" stroke-width="1" width="118" x="1344" y="166"/>
<rect fill="#ffffff" height="40" stroke="#ffffff" stroke-width="1" width="118" x="1344" y="166"/>
<rect fill="none" height="40" stroke="#000000" stroke-width="1" width="118" x="1344" y="166"/>
<text font-family="Dialog" font-size="12" x="1362" y="180">
Aplicação Vida</text>
<rect fill="#ffffff" height="10" stroke="#ffffff" stroke-width="1" width="20" x="1334" y="174"/>
<rect fill="none" height="10" stroke="#000000" stroke-width="1" width="20" x="1334" y="174"/>
<rect fill="#ffffff" height="10" stroke="#ffffff" stroke-width="1" width="20" x="1334" y="187"/>
<rect fill="none" height="10" stroke="#000000" stroke-width="1" width="20" x="1334" y="187"/>
<rect fill="#00ff" height="40" stroke="#00ff" stroke-width="1" width="143" x="1344" y="222"/>
<rect fill="#ffffff" height="40" stroke="#ffffff" stroke-width="1" width="143" x="1344" y="222"/>
<rect fill="none" height="40" stroke="#000000" stroke-width="1" width="143" x="1344" y="222"/>
<text font-family="Dialog" font-size="12" x="1359" y="236">
Cotizador (exemplo)</text>
<rect fill="#ffffff" height="10" stroke="#ffffff" stroke-width="1" width="20" x="1334" y="230"/>
<rect fill="none" height="10" stroke="#000000" stroke-width="1" width="20" x="1334" y="230"/>
<rect fill="#ffffff" height="10" stroke="#ffffff" stroke-width="1" width="20" x="1334" y="243"/>
<rect fill="none" height="10" stroke="#000000" stroke-width="1" width="20" x="1334" y="243"/>
<rect fill="#00ff" height="40" stroke="#00ff" stroke-width="1" width="160" x="1344" y="278"/>
<rect fill="#ffffff" height="40" stroke="#ffffff" stroke-width="1" width="160" x="1344" y="278"/>
<rect fill="none" height="40" stroke="#000000" stroke-width="1" width="160" x="1344" y="278"/>
<text font-family="Dialog" font-size="12" x="1359" y="292">
Prestamista (exemplo)</text>
<rect fill="#ffffff" height="10" stroke="#ffffff" stroke-width="1" width="20" x="1334" y="286"/>
<rect fill="none" height="10" stroke="#000000" stroke-width="1" width="20" x="1334" y="286"/>
<rect fill="#ffffff" height="10" stroke="#ffffff" stroke-width="1" width="20" x="1334" y="299"/>
<rect fill="none" height="10" stroke="#000000" stroke-width="1" width="20" x="1334" y="299"/>
<rect fill="#00ff" height="40" stroke="#00ff" stroke-width="1" width="132" x="1120" y="166"/>
<rect fill="#ffffff" height="40" stroke="#ffffff" stroke-width="1" width="132" x="1120" y="166"/>
<rect fill="none" height="40" stroke="#000000" stroke-width="1" width="132" x="1120" y="166"/>
<text font-family="Dialog" font-size="12" x="1138" y="180">
Conector Vida/LV</text>
<rect fill="#ffffff" height="10" stroke="#ffffff" stroke-width="1" width="20" x="1110" y="174"/>
<rect fill="none" height="10" stroke="#000000" stroke-width="1" width="20" x="1110" y="174"/>
<rect fill="#ffffff" height="10" stroke="#ffffff" stroke-width="1" width="20" x="1110" y="187"/>
<rect fill="none" height="10" stroke="#000000" stroke-width="1" width="20" x="1110" y="187"/>
<rect fill="#00ff" height="40" stroke="#00ff" stroke-width="1" width="156" x="1120" y="222"/>
<rect fill="#ffffff" height="40" stroke="#ffffff" stroke-width="1" width="156" x="1120" y="222"/>
<rect fill="none" height="40" stroke="#000000" stroke-width="1" width="156" x="1120" y="222"/>
<text font-family="Dialog" font-size="12" x="1135" y="236">
Conector Cotizador/LV</text>
<rect fill="#ffffff" height="10" stroke="#ffffff" stroke-width="1" width="20" x="1110" y="230"/>
<rect fill="none" height="10" stroke="#000000" stroke-width="1" width="20" x="1110" y="230"/>
<rect fill="#ffffff" height="10" stroke="#ffffff" stroke-width="1" width="20" x="1110" y="243"/>
<rect fill="none" height="10" stroke="#000000" stroke-width="1" width="20" x="1110" y="243"/>
<rect fill="#00ff" height="40" stroke="#00ff" stroke-width="1" width="176" x="1120" y="278"/>
<rect fill="#ffffff" height="40" stroke="#ffffff" stroke-width="1" width="176" x="1120" y="278"/>
<rect fill="none" height="40" stroke="#000000" stroke-width="1" width="176" x="1120" y="278"/>
<text font-family="Dialog" font-size="12" x="1136" y="292">
Conector Prestamista/LV</text>
<rect fill="#ffffff" height="10" stroke="#ffffff" stroke-width="1" width="20" x="1110" y="286"/>
<rect fill="none" height="10" stroke="#000000" stroke-width="1" width="20" x="1110" y="286"/>
<rect fill="#ffffff" height="10" stroke="#ffffff" stroke-width="1" width="20" x="1110" y="299"/>
<rect fill="none" height="10" stroke="#000000" stroke-width="1" width="20" x="1110" y="299"/>
<line fill="#333399" stroke="#333399" stroke-width="1" x1="1251" x2="1256" y1="194" y2="194"/>
<line fill="#333399" stroke="#333399" stroke-width="1" x1="1261" x2="1266" y1="194" y2="194"/>
<line fill="#333399" stroke="#333399" stroke-width="1" x1="1271" x2="1276" y1="194" y2="194"/>
<line fill="#333399" stroke="#333399" stroke-width="1" x1="1281" x2="1286" y1="194" y2="194"/>
<line fill="#333399" stroke="#333399" stroke-width="1" x1="1291" x2="1296" y1="194" y2="194"/>
<line fill="#333399" stroke="#333399" stroke-width="1" x1="1301" x2="1306" y1="194" y2="194"/>
<line fill="#333399" stroke="#333399" stroke-width="1" x1="1311" x2="1316" y1="194" y2="194"/>
<line fill="#333399" stroke="#333399" stroke-width="1" x1="1321" x2="1326" y1="194" y2="194"/>
<line fill="#333399" stroke="#333399" stroke-width="1" x1="1331" x2="1336" y1="194" y2="194"/>
<line fill="#333399" stroke="#333399" stroke-width="1" x1="1341" x2="1344" y1="194" y2="194"/>
<line fill="#333399" stroke="#333399" stroke-width="1" x1="1332" x2="1344" y1="201" y2="194"/>
<line fill="#333399" stroke="#333399" stroke-width="1" x1="1332" x2="1344" y1="187" y2="194"/>
<line fill="#333399" stroke="#333399" stroke-width="1" x1="1275" x2="1280" y1="250" y2="250"/>
<line fill="#333399" stroke="#333399" stroke-width="1" x1="1285" x2="1290" y1="250" y2="250"/>
<line fill="#333399" stroke="#333399" stroke-width="1" x1="1295" x2="1300" y1="250" y2="250"/>
<line fill="#333399" stroke="#333399" stroke-width="1" x1="1305" x2="1310" y1="250" y2="250"/>
<line fill="#333399" stroke="#333399" stroke-width="1" x1="1315" x2="1320" y1="250" y2="250"/>
<line fill="#333399" stroke="#333399" stroke-width="1" x1="1325" x2="1330" y1="250" y2="250"/>
<line fill="#333399" stroke="#333399" stroke-width="1" x1="1335" x2="1340" y1="250" y2="250"/>
<line fill="#333399" stroke="#333399" stroke-width="1" x1="1332" x2="1344" y1="257" y2="250"/>
<line fill="#333399" stroke="#333399" stroke-width="1" x1="1332" x2="1344" y1="243" y2="250"/>
<line fill="#333399" stroke="#333399" stroke-width="1" x1="1295" x2="1300" y1="306" y2="306"/>
<line fill="#333399" stroke="#333399" stroke-width="1" x1="1305" x2="1310" y1="306" y2="306"/>
<line fill="#333399" stroke="#333399" stroke-width="1" x1="1315" x2="1320" y1="306" y2="306"/>
<line fill="#333399" stroke="#333399" stroke-width="1" x1="1325" x2="1330" y1="306" y2="306"/>
<line fill="#333399" stroke="#333399" stroke-width="1" x1="1335" x2="1340" y1="306" y2="306"/>
<line fill="#333399" stroke="#333399" stroke-width="1" x1="1332" x2="1344" y1="313" y2="306"/>
<line fill="#333399" stroke="#333399" stroke-width="1" x1="1332" x2="1344" y1="299" y2="306"/>
<rect fill="#ffffc8" height="352" stroke="#ffffc8" stroke-width="1" width="227" x="1102" y="470"/>
<rect fill="none" height="351" stroke="#000000" stroke-width="1" width="226" x="1102" y="470"/>
<text font-family="Dialog" font-size="12" x="1104" y="484">
Arquitetura Conectores LV</text>
<text font-family="Dialog" font-size="12" x="1104" y="514">
- Traduz uma chamada do LV </text>
<text font-family="Dialog" font-size="12" x="1104" y="529">
para uma chamada da aplicação.</text>
<text font-family="Dialog" font-size="12" x="1104" y="559">
- Permite consumir serviços e </text>
<text font-family="Dialog" font-size="12" x="1104" y="574">
funcionalidades das aplicações, </text>
<text font-family="Dialog" font-size="12" x="1104" y="589">
sem comprometer a coesão </text>
<text font-family="Dialog" font-size="12" x="1104" y="604">
dos componentes de negócio </text>
<text font-family="Dialog" font-size="12" x="1104" y="619">
ou do próprio Layout Variável.</text>
<text font-family="Dialog" font-size="12" x="1104" y="649">
- Permite controlar o fluxo de </text>
<text font-family="Dialog" font-size="12" x="1104" y="664">
chamadas, tratamento de exceções, </text>
<text font-family="Dialog" font-size="12" x="1104" y="679">
controle transacional, </text>
<text font-family="Dialog" font-size="12" x="1104" y="694">
armazenamento de críticas e </text>
<text font-family="Dialog" font-size="12" x="1104" y="709">
resultados de processamento.</text>
<text font-family="Dialog" font-size="12" x="1104" y="739">
- Sensível às SLAs, políticas </text>
<text font-family="Dialog" font-size="12" x="1104" y="754">
de rejeição de arquivos, </text>
<text font-family="Dialog" font-size="12" x="1104" y="769">
retentativas etc,</text>
<text font-family="Dialog" font-size="12" x="1104" y="799">
- Pode ser instalado como agente </text>
<text font-family="Dialog" font-size="12" x="1104" y="814">
distribuído junto às aplicações.</text>
<rect fill="#00ff" height="40" stroke="#00ff" stroke-width="1" width="174" x="872" y="278"/>
<rect fill="#ffffff" height="40" stroke="#ffffff" stroke-width="1" width="174" x="872" y="278"/>
<rect fill="none" height="40" stroke="#000000" stroke-width="1" width="174" x="872" y="278"/>
<text font-family="Dialog" font-size="12" x="940" y="292">
LV - JMS</text>
<rect fill="#ffffff" height="10" stroke="#ffffff" stroke-width="1" width="20" x="862" y="286"/>
<rect fill="none" height="10" stroke="#000000" stroke-width="1" width="20" x="862" y="286"/>
<rect fill="#ffffff" height="10" stroke="#ffffff" stroke-width="1" width="20" x="862" y="299"/>
<rect fill="none" height="10" stroke="#000000" stroke-width="1" width="20" x="862" y="299"/>
<rect fill="#00ff" height="40" stroke="#00ff" stroke-width="1" width="175" x="872" y="222"/>
<rect fill="#ffffff" height="40" stroke="#ffffff" stroke-width="1" width="175" x="872" y="222"/>
<rect fill="none" height="40" stroke="#000000" stroke-width="1" width="175" x="872" y="222"/>
<text font-family="Dialog" font-size="12" x="914" y="236">
LV - Thread Pool</text>
<rect fill="#ffffff" height="10" stroke="#ffffff" stroke-width="1" width="20" x="862" y="230"/>
<rect fill="none" height="10" stroke="#000000" stroke-width="1" width="20" x="862" y="230"/>
<rect fill="#ffffff" height="10" stroke="#ffffff" stroke-width="1" width="20" x="862" y="243"/>
<rect fill="none" height="10" stroke="#000000" stroke-width="1" width="20" x="862" y="243"/>
<rect fill="#00ff" height="40" stroke="#00ff" stroke-width="1" width="174" x="872" y="166"/>
<rect fill="#ffffff" height="40" stroke="#ffffff" stroke-width="1" width="174" x="872" y="166"/>
<rect fill="none" height="40" stroke="#000000" stroke-width="1" width="174" x="872" y="166"/>
<text font-family="Dialog" font-size="12" x="914" y="180">
LV - MapReduce</text>
<rect fill="#ffffff" height="10" stroke="#ffffff" stroke-width="1" width="20" x="862" y="174"/>
<rect fill="none" height="10" stroke="#000000" stroke-width="1" width="20" x="862" y="174"/>
<rect fill="#ffffff" height="10" stroke="#ffffff" stroke-width="1" width="20" x="862" y="187"/>
<rect fill="none" height="10" stroke="#000000" stroke-width="1" width="20" x="862" y="187"/>
<line fill="#333399" stroke="#333399" stroke-width="1" x1="1046" x2="1050" y1="222" y2="221"/>
<line fill="#333399" stroke="#333399" stroke-width="1" x1="1055" x2="1060" y1="220" y2="219"/>
<line fill="#333399" stroke="#333399" stroke-width="1" x1="1065" x2="1070" y1="218" y2="217"/>
<line fill="#333399" stroke="#333399" stroke-width="1" x1="1075" x2="1080" y1="216" y2="215"/>
<line fill="#333399" stroke="#333399" stroke-width="1" x1="1085" x2="1090" y1="213" y2="212"/>
<line fill="#333399" stroke="#333399" stroke-width="1" x1="1095" x2="1100" y1="211" y2="210"/>
<line fill="#333399" stroke="#333399" stroke-width="1" x1="1105" x2="1110" y1="209" y2="208"/>
<line fill="#333399" stroke="#333399" stroke-width="1" x1="1115" x2="1120" y1="207" y2="205"/>
<line fill="#333399" stroke="#333399" stroke-width="1" x1="1109" x2="1120" y1="214" y2="205"/>
<line fill="#333399" stroke="#333399" stroke-width="1" x1="1106" x2="1120" y1="200" y2="205"/>
<line fill="#333399" stroke="#333399" stroke-width="1" x1="1046" x2="1051" y1="250" y2="250"/>
<line fill="#333399" stroke="#333399" stroke-width="1" x1="1056" x2="1061" y1="250" y2="250"/>
<line fill="#333399" stroke="#333399" stroke-width="1" x1="1066" x2="1071" y1="250" y2="250"/>
<line fill="#333399" stroke="#333399" stroke-width="1" x1="1076" x2="1081" y1="250" y2="250"/>
<line fill="#333399" stroke="#333399" stroke-width="1" x1="1086" x2="1091" y1="250" y2="250"/>
<line fill="#333399" stroke="#333399" stroke-width="1" x1="1096" x2="1101" y1="250" y2="250"/>
<line fill="#333399" stroke="#333399" stroke-width="1" x1="1106" x2="1111" y1="250" y2="250"/>
<line fill="#333399" stroke="#333399" stroke-width="1" x1="1116" x2="1120" y1="250" y2="250"/>
<line fill="#333399" stroke="#333399" stroke-width="1" x1="1108" x2="1120" y1="257" y2="250"/>
<line fill="#333399" stroke="#333399" stroke-width="1" x1="1108" x2="1120" y1="243" y2="250"/>
<line fill="#333399" stroke="#333399" stroke-width="1" x1="1046" x2="1050" y1="261" y2="262"/>
<line fill="#333399" stroke="#333399" stroke-width="1" x1="1055" x2="1060" y1="263" y2="264"/>
<line fill="#333399" stroke="#333399" stroke-width="1" x1="1065" x2="1070" y1="265" y2="266"/>
<line fill="#333399" stroke="#333399" stroke-width="1" x1="1075" x2="1080" y1="267" y2="268"/>
<line fill="#333399" stroke="#333399" stroke-width="1" x1="1085" x2="1090" y1="270" y2="271"/>
<line fill="#333399" stroke="#333399" stroke-width="1" x1="1095" x2="1100" y1="272" y2="273"/>
<line fill="#333399" stroke="#333399" stroke-width="1" x1="1105" x2="1110" y1="274" y2="275"/>
<line fill="#333399" stroke="#333399" stroke-width="1" x1="1115" x2="1120" y1="276" y2="278"/>
<line fill="#333399" stroke="#333399" stroke-width="1" x1="1106" x2="1120" y1="282" y2="278"/>
<line fill="#333399" stroke="#333399" stroke-width="1" x1="1109" x2="1120" y1="268" y2="278"/>
<line fill="#333399" stroke="#333399" stroke-width="1" x1="1045" x2="1050" y1="306" y2="306"/>
<line fill="#333399" stroke="#333399" stroke-width="1" x1="1055" x2="1060" y1="306" y2="306"/>
<line fill="#333399" stroke="#333399" stroke-width="1" x1="1065" x2="1070" y1="306" y2="306"/>
<line fill="#333399" stroke="#333399" stroke-width="1" x1="1075" x2="1080" y1="306" y2="306"/>
<line fill="#333399" stroke="#333399" stroke-width="1" x1="1085" x2="1090" y1="306" y2="306"/>
<line fill="#333399" stroke="#333399" stroke-width="1" x1="1095" x2="1100" y1="306" y2="306"/>
<line fill="#333399" stroke="#333399" stroke-width="1" x1="1105" x2="1110" y1="306" y2="306"/>
<line fill="#333399" stroke="#333399" stroke-width="1" x1="1115" x2="1120" y1="306" y2="306"/>
<line fill="#333399" stroke="#333399" stroke-width="1" x1="1108" x2="1120" y1="313" y2="306"/>
<line fill="#333399" stroke="#333399" stroke-width="1" x1="1108" x2="1120" y1="299" y2="306"/>
<line fill="#333399" stroke="#333399" stroke-width="1" x1="1045" x2="1049" y1="278" y2="277"/>
<line fill="#333399" stroke="#333399" stroke-width="1" x1="1054" x2="1059" y1="276" y2="275"/>
<line fill="#333399" stroke="#333399" stroke-width="1" x1="1064" x2="1069" y1="274" y2="273"/>
<line fill="#333399" stroke="#333399" stroke-width="1" x1="1074" x2="1079" y1="272" y2="271"/>
<line fill="#333399" stroke="#333399" stroke-width="1" x1="1084" x2="1089" y1="270" y2="268"/>
<line fill="#333399" stroke="#333399" stroke-width="1" x1="1094" x2="1099" y1="267" y2="266"/>
<line fill="#333399" stroke="#333399" stroke-width="1" x1="1104" x2="1109" y1="265" y2="264"/>
<line fill="#333399" stroke="#333399" stroke-width="1" x1="1114" x2="1119" y1="263" y2="262"/>
<line fill="#333399" stroke="#333399" stroke-width="1" x1="1109" x2="1120" y1="270" y2="261"/>
<line fill="#333399" stroke="#333399" stroke-width="1" x1="1106" x2="1120" y1="256" y2="261"/>
<line fill="#333399" stroke="#333399" stroke-width="1" x1="1045" x2="1048" y1="278" y2="275"/>
<line fill="#333399" stroke="#333399" stroke-width="1" x1="1052" x2="1056" y1="271" y2="268"/>
<line fill="#333399" stroke="#333399" stroke-width="1" x1="1059" x2="1063" y1="264" y2="261"/>
<line fill="#333399" stroke="#333399" stroke-width="1" x1="1067" x2="1070" y1="257" y2="254"/>
<line fill="#333399" stroke="#333399" stroke-width="1" x1="1070" x2="1073" y1="254" y2="251"/>
<line fill="#333399" stroke="#333399" stroke-width="1" x1="1077" x2="1080" y1="247" y2="244"/>
<line fill="#333399" stroke="#333399" stroke-width="1" x1="1084" x2="1087" y1="240" y2="237"/>
<line fill="#333399" stroke="#333399" stroke-width="1" x1="1091" x2="1095" y1="233" y2="230"/>
<line fill="#333399" stroke="#333399" stroke-width="1" x1="1098" x2="1102" y1="226" y2="223"/>
<line fill="#333399" stroke="#333399" stroke-width="1" x1="1105" x2="1109" y1="219" y2="216"/>
<line fill="#333399" stroke="#333399" stroke-width="1" x1="1112" x2="1116" y1="212" y2="209"/>
<line fill="#333399" stroke="#333399" stroke-width="1" x1="1116" x2="1120" y1="218" y2="205"/>
<line fill="#333399" stroke="#333399" stroke-width="1" x1="1106" x2="1120" y1="208" y2="205"/>
<line fill="#333399" stroke="#333399" stroke-width="1" x1="1045" x2="1050" y1="194" y2="194"/>
<line fill="#333399" stroke="#333399" stroke-width="1" x1="1055" x2="1060" y1="194" y2="194"/>
<line fill="#333399" stroke="#333399" stroke-width="1" x1="1065" x2="1070" y1="194" y2="194"/>
<line fill="#333399" stroke="#333399" stroke-width="1" x1="1075" x2="1080" y1="194" y2="194"/>
<line fill="#333399" stroke="#333399" stroke-width="1" x1="1085" x2="1090" y1="194" y2="194"/>
<line fill="#333399" stroke="#333399" stroke-width="1" x1="1095" x2="1100" y1="194" y2="194"/>
<line fill="#333399" stroke="#333399" stroke-width="1" x1="1105" x2="1110" y1="194" y2="194"/>
<line fill="#333399" stroke="#333399" stroke-width="1" x1="1115" x2="1120" y1="194" y2="194"/>
<line fill="#333399" stroke="#333399" stroke-width="1" x1="1108" x2="1120" y1="201" y2="194"/>
<line fill="#333399" stroke="#333399" stroke-width="1" x1="1108" x2="1120" y1="187" y2="194"/>
<line fill="#333399" stroke="#333399" stroke-width="1" x1="1045" x2="1049" y1="205" y2="206"/>
<line fill="#333399" stroke="#333399" stroke-width="1" x1="1054" x2="1059" y1="207" y2="208"/>
<line fill="#333399" stroke="#333399" stroke-width="1" x1="1064" x2="1069" y1="209" y2="210"/>
<line fill="#333399" stroke="#333399" stroke-width="1" x1="1074" x2="1079" y1="211" y2="212"/>
<line fill="#333399" stroke="#333399" stroke-width="1" x1="1084" x2="1089" y1="213" y2="215"/>
<line fill="#333399" stroke="#333399" stroke-width="1" x1="1094" x2="1099" y1="216" y2="217"/>
<line fill="#333399" stroke="#333399" stroke-width="1" x1="1104" x2="1109" y1="218" y2="219"/>
<line fill="#333399" stroke="#333399" stroke-width="1" x1="1114" x2="1119" y1="220" y2="221"/>
<line fill="#333399" stroke="#333399" stroke-width="1" x1="1106" x2="1120" y1="226" y2="222"/>
<line fill="#333399" stroke="#333399" stroke-width="1" x1="1109" x2="1120" y1="212" y2="222"/>
<line fill="#333399" stroke="#333399" stroke-width="1" x1="1045" x2="1048" y1="205" y2="208"/>
<line fill="#333399" stroke="#333399" stroke-width="1" x1="1052" x2="1055" y1="212" y2="215"/>
<line fill="#333399" stroke="#333399" stroke-width="1" x1="1059" x2="1063" y1="219" y2="222"/>
<line fill="#333399" stroke="#333399" stroke-width="1" x1="1066" x2="1070" y1="226" y2="229"/>
<line fill="#333399" stroke="#333399" stroke-width="1" x1="1073" x2="1077" y1="233" y2="236"/>
<line fill="#333399" stroke="#333399" stroke-width="1" x1="1081" x2="1084" y1="240" y2="243"/>
<line fill="#333399" stroke="#333399" stroke-width="1" x1="1088" x2="1091" y1="247" y2="250"/>
<line fill="#333399" stroke="#333399" stroke-width="1" x1="1095" x2="1099" y1="254" y2="257"/>
<line fill="#333399" stroke="#333399" stroke-width="1" x1="1102" x2="1106" y1="261" y2="264"/>
<line fill="#333399" stroke="#333399" stroke-width="1" x1="1109" x2="1113" y1="268" y2="271"/>
<line fill="#333399" stroke="#333399" stroke-width="1" x1="1117" x2="1120" y1="275" y2="278"/>
<line fill="#333399" stroke="#333399" stroke-width="1" x1="1106" x2="1120" y1="274" y2="278"/>
<line fill="#333399" stroke="#333399" stroke-width="1" x1="1116" x2="1120" y1="264" y2="278"/>
<line fill="#333399" stroke="#333399" stroke-width="1" x1="789" x2="794" y1="230" y2="230"/>
<line fill="#333399" stroke="#333399" stroke-width="1" x1="799" x2="804" y1="230" y2="230"/>
<line fill="#333399" stroke="#333399" stroke-width="1" x1="809" x2="814" y1="230" y2="230"/>
<line fill="#333399" stroke="#333399" stroke-width="1" x1="814" x2="818" y1="230" y2="229"/>
<line fill="#333399" stroke="#333399" stroke-width="1" x1="823" x2="827" y1="227" y2="225"/>
<line fill="#333399" stroke="#333399" stroke-width="1" x1="832" x2="837" y1="223" y2="221"/>
<line fill="#333399" stroke="#333399" stroke-width="1" x1="841" x2="846" y1="219" y2="217"/>
<line fill="#333399" stroke="#333399" stroke-width="1" x1="850" x2="855" y1="215" y2="213"/>
<line fill="#333399" stroke="#333399" stroke-width="1" x1="860" x2="864" y1="211" y2="209"/>
<line fill="#333399" stroke="#333399" stroke-width="1" x1="869" x2="872" y1="207" y2="205"/>
<line fill="#333399" stroke="#333399" stroke-width="1" x1="863" x2="872" y1="216" y2="205"/>
<line fill="#333399" stroke="#333399" stroke-width="1" x1="858" x2="872" y1="203" y2="205"/>
<line fill="#333399" stroke="#333399" stroke-width="1" x1="789" x2="794" y1="238" y2="238"/>
<line fill="#333399" stroke="#333399" stroke-width="1" x1="799" x2="804" y1="238" y2="238"/>
<line fill="#333399" stroke="#333399" stroke-width="1" x1="809" x2="814" y1="238" y2="238"/>
<line fill="#333399" stroke="#333399" stroke-width="1" x1="819" x2="824" y1="238" y2="238"/>
<line fill="#333399" stroke="#333399" stroke-width="1" x1="829" x2="834" y1="238" y2="238"/>
<line fill="#333399" stroke="#333399" stroke-width="1" x1="839" x2="844" y1="238" y2="238"/>
<line fill="#333399" stroke="#333399" stroke-width="1" x1="849" x2="854" y1="238" y2="238"/>
<line fill="#333399" stroke="#333399" stroke-width="1" x1="859" x2="864" y1="238" y2="238"/>
<line fill="#333399" stroke="#333399" stroke-width="1" x1="869" x2="872" y1="238" y2="238"/>
<line fill="#333399" stroke="#333399" stroke-width="1" x1="860" x2="872" y1="245" y2="238"/>
<line fill="#333399" stroke="#333399" stroke-width="1" x1="860" x2="872" y1="231" y2="238"/>
<line fill="#333399" stroke="#333399" stroke-width="1" x1="789" x2="794" y1="246" y2="246"/>
<line fill="#333399" stroke="#333399" stroke-width="1" x1="799" x2="804" y1="246" y2="246"/>
<line fill="#333399" stroke="#333399" stroke-width="1" x1="809" x2="814" y1="246" y2="246"/>
<line fill="#333399" stroke="#333399" stroke-width="1" x1="814" x2="818" y1="246" y2="248"/>
<line fill="#333399" stroke="#333399" stroke-width="1" x1="822" x2="827" y1="250" y2="253"/>
<line fill="#333399" stroke="#333399" stroke-width="1" x1="831" x2="835" y1="255" y2="258"/>
<line fill="#333399" stroke="#333399" stroke-width="1" x1="840" x2="844" y1="260" y2="262"/>
<line fill="#333399" stroke="#333399" stroke-width="1" x1="849" x2="853" y1="265" y2="267"/>
<line fill="#333399" stroke="#333399" stroke-width="1" x1="857" x2="862" y1="270" y2="272"/>
<line fill="#333399" stroke="#333399" stroke-width="1" x1="866" x2="871" y1="275" y2="277"/>
<line fill="#333399" stroke="#333399" stroke-width="1" x1="858" x2="872" y1="278" y2="278"/>
<line fill="#333399" stroke="#333399" stroke-width="1" x1="864" x2="872" y1="266" y2="278"/>
<rect fill="#ffffc8" height="232" stroke="#ffffc8" stroke-width="1" width="248" x="838" y="470"/>
<rect fill="none" height="231" stroke="#000000" stroke-width="1" width="247" x="838" y="470"/>
<text font-family="Dialog" font-size="12" x="840" y="484">
Arquit./Executors - MACRO REQUISITOS</text>
<text font-family="Dialog" font-size="12" x="840" y="514">
- Garantir o desacoplamento da </text>
<text font-family="Dialog" font-size="12" x="840" y="529">
arquitetura que irá implementar </text>
<text font-family="Dialog" font-size="12" x="840" y="544">
a execução dos jobs.</text>
<text font-family="Dialog" font-size="12" x="840" y="574">
- Permtir que diferentes tecnologias</text>
<text font-family="Dialog" font-size="12" x="840" y="589">
 e padrões de execução dos jobs </text>
<text font-family="Dialog" font-size="12" x="840" y="604">
possam ser implementados </text>
<text font-family="Dialog" font-size="12" x="840" y="619">
futuramente.</text>
<text font-family="Dialog" font-size="12" x="840" y="649">
- Implementação das arquiteturas</text>
<text font-family="Dialog" font-size="12" x="840" y="664">
de execução dos jobs.</text>
<rect fill="#00ff" height="40" stroke="#00ff" stroke-width="1" width="186" x="608" y="294"/>
<rect fill="#ffffff" height="40" stroke="#ffffff" stroke-width="1" width="186" x="608" y="294"/>
<rect fill="none" height="40" stroke="#000000" stroke-width="1" width="186" x="608" y="294"/>
<text font-family="Dialog" font-size="12" x="623" y="308">
Layout Variável Web Admin</text>
<rect fill="#ffffff" height="10" stroke="#ffffff" stroke-width="1" width="20" x="598" y="302"/>
<rect fill="none" height="10" stroke="#000000" stroke-width="1" width="20" x="598" y="302"/>
<rect fill="#ffffff" height="10" stroke="#ffffff" stroke-width="1" width="20" x="598" y="315"/>
<rect fill="none" height="10" stroke="#000000" stroke-width="1" width="20" x="598" y="315"/>
<line fill="#000000" stroke="#000000" stroke-width="1" x1="649" x2="645" y1="388" y2="387"/>
<line fill="#000000" stroke="#000000" stroke-width="1" x1="640" x2="635" y1="385" y2="383"/>
<line fill="#000000" stroke="#000000" stroke-width="1" x1="631" x2="626" y1="381" y2="379"/>
<line fill="#000000" stroke="#000000" stroke-width="1" x1="621" x2="616" y1="377" y2="375"/>
<line fill="#000000" stroke="#000000" stroke-width="1" x1="614" x2="614" y1="374" y2="369"/>
<line fill="#000000" stroke="#000000" stroke-width="1" x1="614" x2="614" y1="364" y2="359"/>
<line fill="#000000" stroke="#000000" stroke-width="1" x1="614" x2="614" y1="354" y2="349"/>
<line fill="#000000" stroke="#000000" stroke-width="1" x1="614" x2="614" y1="344" y2="339"/>
<line fill="#000000" stroke="#000000" stroke-width="1" x1="614" x2="614" y1="334" y2="333"/>
<line fill="#000000" stroke="#000000" stroke-width="1" x1="621" x2="614" y1="345" y2="333"/>
<line fill="#000000" stroke="#000000" stroke-width="1" x1="607" x2="614" y1="345" y2="333"/>
<text font-family="Dialog" font-size="12" x="671" y="395">
Config layout, políticas, permissões etc.</text>
<line fill="#333399" stroke="#333399" stroke-width="1" x1="678" x2="678" y1="294" y2="289"/>
<line fill="#333399" stroke="#333399" stroke-width="1" x1="678" x2="678" y1="284" y2="279"/>
<line fill="#333399" stroke="#333399" stroke-width="1" x1="678" x2="678" y1="274" y2="269"/>
<line fill="#333399" stroke="#333399" stroke-width="1" x1="678" x2="678" y1="264" y2="259"/>
<line fill="#333399" stroke="#333399" stroke-width="1" x1="678" x2="678" y1="254" y2="253"/>
<line fill="#333399" stroke="#333399" stroke-width="1" x1="685" x2="678" y1="265" y2="253"/>
<line fill="#333399" stroke="#333399" stroke-width="1" x1="671" x2="678" y1="265" y2="253"/>
<line fill="#333399" stroke="#333399" stroke-width="1" x1="726" x2="726" y1="253" y2="258"/>
<line fill="#333399" stroke="#333399" stroke-width="1" x1="726" x2="726" y1="263" y2="268"/>
<line fill="#333399" stroke="#333399" stroke-width="1" x1="726" x2="726" y1="273" y2="278"/>
<line fill="#333399" stroke="#333399" stroke-width="1" x1="726" x2="726" y1="283" y2="288"/>
<line fill="#333399" stroke="#333399" stroke-width="1" x1="726" x2="726" y1="293" y2="294"/>
<line fill="#333399" stroke="#333399" stroke-width="1" x1="719" x2="726" y1="282" y2="294"/>
<line fill="#333399" stroke="#333399" stroke-width="1" x1="733" x2="726" y1="282" y2="294"/>
<text font-family="Dialog" font-size="18" font-weight="bold" x="711" y="112">
Layout Variável</text>
<text font-family="Dialog" font-size="24" x="15" y="38">
Diagrama de Distribuição - Macro Layout Variável.</text>
<text font-family="Dialog" font-size="12" x="883" y="139">
Arquiteturas Executoras</text>
<text font-family="Dialog" font-size="12" x="1144" y="139">
Conectores</text>
<text font-family="Dialog" font-size="12" x="648" y="139">
Layout Variável</text>
<text font-family="Dialog" font-size="12" x="632" y="154">
Manager e Executor</text>
<text font-family="Dialog" font-size="12" x="342" y="139">
MFT - Gerenciamento de </text>
<text font-family="Dialog" font-size="12" x="339" y="154">
Transferência de Arquivos</text>
</svg>
